<svg width="132" height="124" viewBox="0 0 132 124" fill="none" xmlns="http://www.w3.org/2000/svg">
<path d="M11.9611 22.3862H111.575C117.055 22.3862 121.536 26.8677 121.536 32.3473V44.3021C121.536 49.7817 117.055 54.2633 111.575 54.2633H11.9611C6.48158 54.2633 2 49.7793 2 44.3021V32.3473C2 26.8677 6.48158 22.3862 11.9611 22.3862Z" fill="url(#paint0_linear_34_6620)" stroke="#385BD0" stroke-width="3" stroke-miterlimit="10"/>
<g style="mix-blend-mode:multiply" opacity="0.2">
<path d="M11.9611 22.3862H111.575C117.055 22.3862 121.536 26.8677 121.536 32.3473V44.3021C121.536 49.7817 117.055 54.2633 111.575 54.2633H11.9611C6.48158 54.2633 2 49.7793 2 44.3021V32.3473C2 26.8677 6.48158 22.3862 11.9611 22.3862Z" fill="#9EB1F0"/>
</g>
<path d="M79.8572 54.87C94.4568 54.87 106.292 43.0346 106.292 28.435C106.292 13.8354 94.4568 2 79.8572 2C65.2575 2 53.4222 13.8354 53.4222 28.435C53.4222 43.0346 65.2575 54.87 79.8572 54.87Z" fill="url(#paint1_linear_34_6620)" stroke="#385BD0" stroke-width="3" stroke-miterlimit="10"/>
<path d="M79.8572 45.4289C89.2427 45.4289 96.8511 37.8205 96.8511 28.435C96.8511 19.0495 89.2427 11.4411 79.8572 11.4411C70.4717 11.4411 62.8633 19.0495 62.8633 28.435C62.8633 37.8205 70.4717 45.4289 79.8572 45.4289Z" fill="url(#paint2_linear_34_6620)" stroke="#385BD0" stroke-width="3" stroke-miterlimit="10"/>
<g style="mix-blend-mode:multiply" opacity="0.2">
<path d="M79.8572 45.4289C89.2427 45.4289 96.8511 37.8205 96.8511 28.435C96.8511 19.0495 89.2427 11.4411 79.8572 11.4411C70.4717 11.4411 62.8633 19.0495 62.8633 28.435C62.8633 37.8205 70.4717 45.4289 79.8572 45.4289Z" fill="#9EB1F0"/>
</g>
<path d="M89.6286 10.6539C90.3234 10.6539 90.8866 10.0907 90.8866 9.39591C90.8866 8.70112 90.3234 8.13788 89.6286 8.13788C88.9338 8.13788 88.3705 8.70112 88.3705 9.39591C88.3705 10.0907 88.9338 10.6539 89.6286 10.6539Z" fill="#9EB1F0"/>
<path d="M73.3047 9.32093C73.9994 9.32093 74.5627 8.75769 74.5627 8.0629C74.5627 7.36811 73.9994 6.80487 73.3047 6.80487C72.6099 6.80487 72.0466 7.36811 72.0466 8.0629C72.0466 8.75769 72.6099 9.32093 73.3047 9.32093Z" fill="#9EB1F0"/>
<path d="M60.8181 19.9216C61.5129 19.9216 62.0761 19.3584 62.0761 18.6636C62.0761 17.9688 61.5129 17.4056 60.8181 17.4056C60.1233 17.4056 59.5601 17.9688 59.5601 18.6636C59.5601 19.3584 60.1233 19.9216 60.8181 19.9216Z" fill="#9EB1F0"/>
<path d="M98.8963 39.4621C99.5911 39.4621 100.154 38.8988 100.154 38.204C100.154 37.5093 99.5911 36.946 98.8963 36.946C98.2015 36.946 97.6383 37.5093 97.6383 38.204C97.6383 38.8988 98.2015 39.4621 98.8963 39.4621Z" fill="#9EB1F0"/>
<path d="M100.229 23.1382C100.924 23.1382 101.487 22.5749 101.487 21.8801C101.487 21.1853 100.924 20.6221 100.229 20.6221C99.5345 20.6221 98.9713 21.1853 98.9713 21.8801C98.9713 22.5749 99.5345 23.1382 100.229 23.1382Z" fill="#9EB1F0"/>
<g style="mix-blend-mode:multiply" opacity="0.2">
<path d="M59.717 59.9045C74.3167 59.9045 86.152 48.0691 86.152 33.4695C86.152 18.8698 74.3167 7.03445 59.717 7.03445C45.1174 7.03445 33.282 18.8698 33.282 33.4695C33.282 48.0691 45.1174 59.9045 59.717 59.9045Z" fill="#9EB1F0"/>
</g>
<path d="M54.6802 58.6464C69.2799 58.6464 81.1152 46.8111 81.1152 32.2114C81.1152 17.6118 69.2799 5.77643 54.6802 5.77643C40.0806 5.77643 28.2452 17.6118 28.2452 32.2114C28.2452 46.8111 40.0806 58.6464 54.6802 58.6464Z" fill="url(#paint3_linear_34_6620)" stroke="#385BD0" stroke-width="3" stroke-miterlimit="10"/>
<path d="M54.6802 49.2054C64.0657 49.2054 71.6741 41.5969 71.6741 32.2114C71.6741 22.8259 64.0657 15.2175 54.6802 15.2175C45.2947 15.2175 37.6863 22.8259 37.6863 32.2114C37.6863 41.5969 45.2947 49.2054 54.6802 49.2054Z" fill="url(#paint4_linear_34_6620)" stroke="#385BD0" stroke-width="3" stroke-miterlimit="10"/>
<g style="mix-blend-mode:multiply" opacity="0.2">
<path d="M54.6802 49.2054C64.0657 49.2054 71.6741 41.5969 71.6741 32.2114C71.6741 22.8259 64.0657 15.2175 54.6802 15.2175C45.2947 15.2175 37.6863 22.8259 37.6863 32.2114C37.6863 41.5969 45.2947 49.2054 54.6802 49.2054Z" fill="#9EB1F0"/>
</g>
<path d="M2 40.3171V32.3473C2 36.7305 5.58667 40.3171 9.96986 40.3171H115.56C121.039 40.3171 125.521 44.7987 125.521 50.2783V112.039C125.521 117.518 121.037 122 115.56 122H11.9611C6.48158 122 2 117.518 2 112.039V40.3171Z" fill="url(#paint5_linear_34_6620)" stroke="#385BD0" stroke-width="3" stroke-miterlimit="10"/>
<g style="mix-blend-mode:multiply" opacity="0.5">
<path d="M115.56 118.015H11.9611C6.48158 118.015 2 113.533 2 108.054V112.039C2 117.518 6.48158 122 11.9611 122H115.56C121.039 122 125.521 117.518 125.521 112.039V108.054C125.521 113.533 121.037 118.015 115.56 118.015Z" fill="#9EB1F0"/>
</g>
<path opacity="0.5" d="M115.56 40.3171H9.96986C5.58667 40.3171 2 36.7305 2 32.3473V36.3322C2 40.7154 5.58667 44.3021 9.96986 44.3021H115.56C121.039 44.3021 125.521 48.7837 125.521 54.2632V50.2783C125.521 44.7987 121.037 40.3171 115.56 40.3171Z" fill="#9EB1F0"/>
<path d="M2 40.3171V32.3473C2 36.7305 5.58667 40.3171 9.96986 40.3171H115.56C121.039 40.3171 125.521 44.7987 125.521 50.2783V112.039C125.521 117.518 121.037 122 115.56 122H11.9611C6.48158 122 2 117.518 2 112.039V40.3171Z" stroke="#385BD0" stroke-width="3" stroke-miterlimit="10"/>
<path d="M125.521 97.0971H109.584C101.914 97.0971 95.6376 90.821 95.6376 83.151C95.6376 75.481 101.914 69.205 109.584 69.205H125.521C127.712 69.205 129.506 70.9971 129.506 73.1899V93.1122C129.506 95.3026 127.714 97.0971 125.521 97.0971Z" fill="url(#paint6_linear_34_6620)" stroke="#385BD0" stroke-width="3" stroke-miterlimit="10"/>
<path d="M109.584 75.1812C113.967 75.1812 117.554 78.7679 117.554 83.151C117.554 87.5342 113.967 91.1209 109.584 91.1209C105.2 91.1209 101.614 87.5342 101.614 83.151C101.614 78.7679 105.2 75.1812 109.584 75.1812Z" fill="#385BD0"/>
<g style="mix-blend-mode:multiply">
<path d="M111.575 89.1272C107.192 89.1272 103.605 85.5406 103.605 81.1574C103.605 79.4636 104.104 77.8706 104.999 76.5751C102.907 77.969 101.612 80.3609 101.612 83.1487C101.612 87.5319 105.198 91.1185 109.581 91.1185C112.271 91.1185 114.663 89.7246 116.155 87.731C114.859 88.6283 113.266 89.1249 111.573 89.1249L111.575 89.1272Z" fill="#9EB1F0"/>
</g>
<path d="M54.6802 12.0689C55.375 12.0689 55.9382 11.5057 55.9382 10.8109C55.9382 10.1161 55.375 9.55286 54.6802 9.55286C53.9854 9.55286 53.4222 10.1161 53.4222 10.8109C53.4222 11.5057 53.9854 12.0689 54.6802 12.0689Z" fill="#9EB1F0"/>
<path d="M39.5487 18.3356C40.2435 18.3356 40.8068 17.7724 40.8068 17.0776C40.8068 16.3828 40.2435 15.8196 39.5487 15.8196C38.854 15.8196 38.2907 16.3828 38.2907 17.0776C38.2907 17.7724 38.854 18.3356 39.5487 18.3356Z" fill="#9EB1F0"/>
<path d="M33.282 33.4695C33.9768 33.4695 34.54 32.9062 34.54 32.2114C34.54 31.5166 33.9768 30.9534 33.282 30.9534C32.5872 30.9534 32.024 31.5166 32.024 32.2114C32.024 32.9062 32.5872 33.4695 33.282 33.4695Z" fill="#9EB1F0"/>
<path d="M76.0808 33.4695C76.7756 33.4695 77.3388 32.9062 77.3388 32.2114C77.3388 31.5166 76.7756 30.9534 76.0808 30.9534C75.386 30.9534 74.8228 31.5166 74.8228 32.2114C74.8228 32.9062 75.386 33.4695 76.0808 33.4695Z" fill="#9EB1F0"/>
<path d="M69.8141 18.3356C70.5088 18.3356 71.0721 17.7724 71.0721 17.0776C71.0721 16.3828 70.5088 15.8196 69.8141 15.8196C69.1193 15.8196 68.556 16.3828 68.556 17.0776C68.556 17.7724 69.1193 18.3356 69.8141 18.3356Z" fill="#9EB1F0"/>
<g style="mix-blend-mode:multiply" opacity="0.2">
<path d="M39.5745 35.3577C39.5745 25.9728 47.1836 18.3637 56.5684 18.3637C62.1042 18.3637 67.0075 21.0227 70.1092 25.1201C67.4198 19.2797 61.5303 15.2175 54.6802 15.2175C45.2954 15.2175 37.6863 22.8266 37.6863 32.2114C37.6863 36.0605 38.9818 39.6003 41.1394 42.449C40.1438 40.289 39.5745 37.8925 39.5745 35.3577Z" fill="#9EB1F0"/>
</g>
<path d="M68.865 93L66.721 87.304H57.121L55.009 93H50.945L59.777 70.312H64.225L73.057 93H68.865ZM61.921 74.472L58.465 83.752H65.377L61.921 74.472Z" fill="#375BD2"/>
<defs>
<linearGradient id="paint0_linear_34_6620" x1="2" y1="38.3259" x2="121.536" y2="38.3259" gradientUnits="userSpaceOnUse">
<stop stop-color="white"/>
<stop offset="1" stop-color="#F2F2F7"/>
</linearGradient>
<linearGradient id="paint1_linear_34_6620" x1="56.3304" y1="16.3633" x2="103.369" y2="40.5065" gradientUnits="userSpaceOnUse">
<stop stop-color="white"/>
<stop offset="1" stop-color="#F2F2F7"/>
</linearGradient>
<linearGradient id="paint2_linear_34_6620" x1="64.7298" y1="20.6744" x2="94.9672" y2="36.1943" gradientUnits="userSpaceOnUse">
<stop stop-color="white"/>
<stop offset="1" stop-color="#F2F2F7"/>
</linearGradient>
<linearGradient id="paint3_linear_34_6620" x1="28.2452" y1="32.2114" x2="81.1152" y2="32.2114" gradientUnits="userSpaceOnUse">
<stop stop-color="white"/>
<stop offset="1" stop-color="#F2F2F7"/>
</linearGradient>
<linearGradient id="paint4_linear_34_6620" x1="37.6863" y1="32.2114" x2="71.6741" y2="32.2114" gradientUnits="userSpaceOnUse">
<stop stop-color="white"/>
<stop offset="1" stop-color="#F2F2F7"/>
</linearGradient>
<linearGradient id="paint5_linear_34_6620" x1="1.51506" y1="77.1748" x2="125.521" y2="77.1748" gradientUnits="userSpaceOnUse">
<stop stop-color="white"/>
<stop offset="1" stop-color="#F2F2F7"/>
</linearGradient>
<linearGradient id="paint6_linear_34_6620" x1="95.6376" y1="83.151" x2="129.506" y2="83.151" gradientUnits="userSpaceOnUse">
<stop stop-color="#F3F5FB"/>
<stop offset="0.54" stop-color="#EBEDFB"/>
<stop offset="0.71" stop-color="#E2E6F6"/>
<stop offset="1" stop-color="#E1E5F7"/>
</linearGradient>
</defs>
</svg>
