<?xml version="1.0" encoding="UTF-8"?>
<svg xmlns="http://www.w3.org/2000/svg" xmlns:xlink="http://www.w3.org/1999/xlink" viewBox="0 0 548.41 516.4">
  <defs>
    <style>
      .cls-1, .cls-2, .cls-3, .cls-4, .cls-5, .cls-6 {
        stroke-width: 0px;
      }

      .cls-1, .cls-2, .cls-3, .cls-4, .cls-6 {
        fill: #9eb1f0;
      }

      .cls-1, .cls-3, .cls-4 {
        mix-blend-mode: multiply;
      }

      .cls-7 {
        fill: url(#linear-gradient);
      }

      .cls-7, .cls-8, .cls-9, .cls-10, .cls-11, .cls-12, .cls-13, .cls-14 {
        stroke: #385bd0;
        stroke-miterlimit: 10;
        stroke-width: 4.14px;
      }

      .cls-2, .cls-3 {
        opacity: .5;
      }

      .cls-4 {
        opacity: .2;
      }

      .cls-8 {
        fill: none;
      }

      .cls-15 {
        isolation: isolate;
      }

      .cls-5 {
        fill: #385bd0;
      }

      .cls-9 {
        fill: url(#linear-gradient-7);
      }

      .cls-10 {
        fill: url(#linear-gradient-5);
      }

      .cls-11 {
        fill: url(#linear-gradient-6);
      }

      .cls-12 {
        fill: url(#linear-gradient-3);
      }

      .cls-13 {
        fill: url(#linear-gradient-2);
      }

      .cls-14 {
        fill: url(#linear-gradient-4);
      }
    </style>
    <linearGradient id="linear-gradient" x1="2.07" y1="157.16" x2="512.32" y2="157.16" gradientUnits="userSpaceOnUse">
      <stop offset="0" stop-color="#fff"/>
      <stop offset="1" stop-color="#f2f2f7"/>
    </linearGradient>
    <linearGradient id="linear-gradient-2" x1="462.5" y1="819.81" x2="688.19" y2="819.81" gradientTransform="translate(196.87 -877.13) rotate(27.17)" xlink:href="#linear-gradient"/>
    <linearGradient id="linear-gradient-3" x1="502.8" y1="819.81" x2="647.88" y2="819.81" gradientTransform="translate(196.87 -877.13) rotate(27.17)" xlink:href="#linear-gradient"/>
    <linearGradient id="linear-gradient-4" x1="114.1" y1="131.06" x2="339.78" y2="131.06" xlink:href="#linear-gradient"/>
    <linearGradient id="linear-gradient-5" x1="154.4" y1="131.06" x2="299.48" y2="131.06" xlink:href="#linear-gradient"/>
    <linearGradient id="linear-gradient-6" y1="322.99" x2="529.33" y2="322.99" xlink:href="#linear-gradient"/>
    <linearGradient id="linear-gradient-7" x1="401.77" y1="348.5" x2="546.34" y2="348.5" gradientUnits="userSpaceOnUse">
      <stop offset="0" stop-color="#f3f5fb"/>
      <stop offset=".54" stop-color="#ebedfb"/>
      <stop offset=".71" stop-color="#e2e6f6"/>
      <stop offset="1" stop-color="#e1e5f7"/>
    </linearGradient>
  </defs>
  <g class="cls-15">
    <g id="Layer_2" data-name="Layer 2">
      <g id="Layer_1-2" data-name="Layer 1">
        <g>
          <path class="cls-7" d="m44.59,89.12h425.21c23.39,0,42.52,19.13,42.52,42.52v51.03c0,23.39-19.13,42.52-42.52,42.52H44.59c-23.39,0-42.52-19.14-42.52-42.52v-51.03c0-23.39,19.13-42.52,42.52-42.52Z"/>
          <path class="cls-4" d="m44.59,89.12h425.21c23.39,0,42.52,19.13,42.52,42.52v51.03c0,23.39-19.13,42.52-42.52,42.52H44.59c-23.39,0-42.52-19.14-42.52-42.52v-51.03c0-23.39,19.13-42.52,42.52-42.52Z"/>
          <circle class="cls-13" cx="334.41" cy="114.94" r="112.84"/>
          <circle class="cls-12" cx="334.41" cy="114.94" r="72.54"/>
          <circle class="cls-4" cx="334.41" cy="114.94" r="72.54"/>
          <circle class="cls-6" cx="376.12" cy="33.67" r="5.37"/>
          <circle class="cls-6" cx="306.44" cy="27.98" r="5.37"/>
          <circle class="cls-6" cx="253.14" cy="73.23" r="5.37"/>
          <circle class="cls-6" cx="415.68" cy="156.64" r="5.37"/>
          <circle class="cls-6" cx="421.37" cy="86.96" r="5.37"/>
          <circle class="cls-4" cx="248.44" cy="136.43" r="112.84"/>
          <circle class="cls-14" cx="226.94" cy="131.06" r="112.84"/>
          <circle class="cls-10" cx="226.94" cy="131.06" r="72.54"/>
          <circle class="cls-4" cx="226.94" cy="131.06" r="72.54"/>
          <path class="cls-11" d="m2.07,165.66v-34.02c0,18.71,15.31,34.02,34.02,34.02h450.72c23.39,0,42.52,19.13,42.52,42.52v263.63c0,23.39-19.14,42.52-42.52,42.52H44.59c-23.39,0-42.52-19.13-42.52-42.52V165.66"/>
          <path class="cls-3" d="m486.81,497.32H44.59c-23.39,0-42.52-19.13-42.52-42.52v17.01c0,23.39,19.13,42.52,42.52,42.52h442.22c23.39,0,42.52-19.13,42.52-42.52v-17.01c0,23.39-19.14,42.52-42.52,42.52Z"/>
          <path class="cls-2" d="m486.81,165.66H36.09c-18.71,0-34.02-15.31-34.02-34.02v17.01c0,18.71,15.31,34.02,34.02,34.02h450.72c23.39,0,42.52,19.13,42.52,42.52v-17.01c0-23.39-19.14-42.52-42.52-42.52Z"/>
          <path class="cls-8" d="m2.07,165.66v-34.02c0,18.71,15.31,34.02,34.02,34.02h450.72c23.39,0,42.52,19.13,42.52,42.52v263.63c0,23.39-19.14,42.52-42.52,42.52H44.59c-23.39,0-42.52-19.13-42.52-42.52V165.66"/>
          <path class="cls-9" d="m529.33,408.03h-68.03c-32.74,0-59.53-26.79-59.53-59.53s26.79-59.53,59.53-59.53h68.03c9.35,0,17.01,7.65,17.01,17.01v85.04c0,9.35-7.65,17.01-17.01,17.01Z"/>
          <path class="cls-5" d="m461.3,314.48c18.71,0,34.02,15.31,34.02,34.02s-15.31,34.02-34.02,34.02-34.02-15.31-34.02-34.02,15.31-34.02,34.02-34.02Z"/>
          <path class="cls-1" d="m469.8,374.01c-18.71,0-34.02-15.31-34.02-34.02,0-7.23,2.13-14.03,5.95-19.56-8.93,5.95-14.46,16.16-14.46,28.06,0,18.71,15.31,34.02,34.02,34.02,11.48,0,21.69-5.95,28.06-14.46-5.53,3.83-12.33,5.95-19.56,5.95Z"/>
          <circle class="cls-6" cx="226.94" cy="39.71" r="5.37"/>
          <circle class="cls-6" cx="162.35" cy="66.46" r="5.37"/>
          <circle class="cls-6" cx="135.6" cy="131.06" r="5.37"/>
          <circle class="cls-6" cx="318.29" cy="131.06" r="5.37"/>
          <circle class="cls-6" cx="291.54" cy="66.46" r="5.37"/>
          <path class="cls-4" d="m162.46,144.49c0-40.06,32.48-72.54,72.54-72.54,23.63,0,44.56,11.35,57.8,28.84-11.48-24.93-36.62-42.27-65.86-42.27-40.06,0-72.54,32.48-72.54,72.54,0,16.43,5.53,31.54,14.74,43.7-4.25-9.22-6.68-19.45-6.68-30.27Z"/>
        </g>
      </g>
    </g>
  </g>
</svg>